<?xml version="1.0" standalone="no"?>
<!DOCTYPE svg PUBLIC "-//W3C//DTD SVG 20010904//EN"
 "http://www.w3.org/TR/2001/REC-SVG-20010904/DTD/svg10.dtd">
<svg version="1.0" xmlns="http://www.w3.org/2000/svg"
 width="1024.000000pt" height="1024.000000pt" viewBox="0 0 1024.000000 1024.000000"
 preserveAspectRatio="xMidYMid meet">
<metadata>
Created by potrace 1.14, written by Peter Selinger 2001-2017
</metadata>
<g transform="translate(0.000000,1024.000000) scale(0.100000,-0.100000)"
fill="#000000" stroke="none">
<path d="M8247 9166 c-23 -17 -370 -157 -807 -325 -218 -84 -750 -331 -866
-402 l-66 -40 -37 33 c-39 36 -336 199 -436 241 -184 75 -412 140 -599 169
-118 18 -186 22 -411 22 -361 1 -530 -22 -798 -106 -269 -84 -542 -215 -667
-318 l-45 -37 -280 138 c-154 76 -300 146 -325 155 -25 10 -114 48 -198 86
-85 38 -181 78 -215 90 -34 11 -113 43 -174 70 -62 26 -184 75 -271 107 -86
32 -183 73 -215 91 -31 17 -57 29 -57 26 0 -46 401 -684 507 -806 52 -60 103
-126 103 -134 0 -3 -34 -6 -76 -6 l-76 0 7 -27 c10 -42 21 -51 124 -99 135
-63 421 -227 421 -241 0 -6 -17 -33 -37 -60 -203 -264 -346 -616 -398 -978
-19 -130 -22 -434 -6 -545 6 -41 27 -139 47 -218 20 -79 34 -146 31 -148 -6
-7 -433 439 -502 525 -263 326 -427 584 -513 806 -28 72 -58 146 -66 167 -20
47 -60 217 -92 385 -13 73 -28 142 -34 155 -7 20 -9 18 -9 -17 -1 -22 -12 -86
-26 -142 -56 -231 -88 -632 -75 -948 12 -289 43 -490 100 -645 16 -46 30 -87
30 -92 0 -4 -20 -8 -45 -8 l-44 0 5 -32 c27 -148 118 -394 186 -500 28 -44 46
-82 42 -89 -15 -25 -3 -178 26 -321 78 -384 233 -720 477 -1034 46 -58 107
-149 137 -202 72 -130 127 -229 151 -273 115 -209 372 -515 727 -865 220 -217
222 -219 763 -618 273 -202 453 -310 732 -440 141 -66 269 -109 358 -121 52
-7 127 -58 204 -139 19 -20 39 -36 44 -36 4 0 44 38 89 85 48 51 88 85 100 85
56 0 281 80 504 179 166 73 414 233 706 455 25 20 117 88 205 153 323 238 491
394 776 720 277 318 420 526 590 858 22 43 57 97 77 120 35 38 51 59 163 220
161 231 258 471 368 904 55 217 60 270 29 278 -27 7 -26 16 14 87 74 133 169
386 182 486 6 49 6 50 -20 50 -15 0 -36 -5 -47 -10 -31 -17 -24 24 25 152 49
128 69 228 91 471 21 238 20 511 -6 731 -17 156 -72 472 -83 483 -2 2 -9 -27
-15 -64 -15 -84 -77 -314 -132 -488 -85 -267 -316 -667 -528 -913 -182 -212
-328 -372 -340 -372 -3 0 -14 -12 -23 -27 -22 -37 -125 -143 -138 -143 -18 0
-11 52 24 175 18 66 38 158 44 205 28 222 33 279 28 325 -27 229 -36 277 -81
454 -44 175 -151 425 -242 568 -20 32 -63 93 -95 137 -33 43 -58 79 -56 80 35
22 173 97 203 111 222 101 306 147 325 178 11 17 20 42 20 55 0 23 -1 23 -82
16 -97 -8 -102 -27 42 152 97 121 130 166 322 449 60 88 134 196 164 240 65
94 77 115 67 115 -4 0 -16 -7 -26 -14z m-387 -321 c0 -2 -33 -28 -72 -58 -40
-30 -140 -112 -222 -183 -82 -71 -189 -160 -237 -199 -48 -38 -131 -107 -186
-152 -54 -45 -139 -115 -189 -155 -50 -40 -141 -113 -201 -163 -61 -49 -157
-126 -213 -170 -56 -44 -168 -133 -248 -198 -81 -64 -171 -136 -200 -160 -123
-97 -272 -223 -342 -290 -88 -84 -152 -142 -195 -177 -41 -35 -185 -187 -159
-169 11 8 43 33 70 57 107 93 460 352 774 569 69 48 148 105 176 127 28 23 77
59 108 81 32 22 83 59 114 82 65 48 72 51 72 23 0 -11 -4 -20 -9 -20 -5 0 -33
-22 -63 -48 -66 -59 -163 -135 -246 -191 -35 -23 -125 -89 -200 -145 -75 -56
-166 -122 -202 -146 -99 -67 -320 -235 -465 -355 -71 -59 -200 -164 -285 -233
-85 -70 -174 -144 -198 -166 l-42 -39 -53 49 c-28 27 -77 67 -107 89 -30 21
-80 60 -110 86 -30 25 -82 68 -115 95 -33 26 -118 96 -188 154 -181 148 -284
228 -417 323 -63 45 -140 102 -170 127 -66 55 -246 187 -350 257 -41 28 -94
68 -118 90 l-43 38 28 2 c20 1 55 -18 126 -70 54 -40 141 -101 192 -137 52
-36 129 -91 172 -123 43 -32 129 -93 191 -137 62 -44 138 -101 170 -128 31
-28 91 -72 133 -100 41 -28 81 -58 88 -66 8 -9 22 -16 31 -16 10 0 20 -5 22
-11 2 -5 10 -11 19 -12 9 -2 29 -11 45 -21 55 -35 -220 221 -331 309 -27 21
-86 71 -130 110 -81 72 -324 269 -445 360 -36 27 -90 70 -120 95 -30 26 -82
66 -115 91 -132 97 -666 538 -955 789 -63 55 -150 126 -192 157 -42 32 -75 59
-73 61 6 6 440 -167 636 -254 247 -109 534 -248 684 -334 422 -238 885 -628
1126 -950 130 -173 246 -388 297 -551 16 -52 37 -109 46 -127 9 -17 16 -39 16
-49 -1 -17 -2 -16 -16 2 -9 11 -58 107 -109 212 -85 176 -165 310 -230 388
-14 17 -23 23 -20 15 4 -11 -5 -19 -27 -27 -49 -18 -156 -35 -194 -31 -18 1
-36 -1 -40 -5 -4 -4 -17 1 -28 10 -12 9 104 -108 257 -260 152 -152 277 -279
277 -282 0 -10 -30 8 -30 19 0 6 -20 25 -43 43 -23 17 -71 60 -107 95 -35 35
-69 62 -75 60 -6 -1 -30 14 -53 34 -23 19 -42 31 -42 25 0 -5 12 -18 26 -28
14 -10 35 -28 46 -40 11 -11 54 -47 96 -80 113 -87 159 -131 166 -159 4 -14
11 -22 16 -19 14 9 50 -18 50 -37 0 -10 7 -18 15 -18 8 0 20 -9 27 -20 7 -11
18 -20 25 -20 7 0 13 -4 13 -10 0 -5 5 -10 10 -10 6 0 10 7 10 15 0 8 4 15 8
15 4 0 8 10 9 21 2 22 52 83 61 74 3 -3 -5 -14 -18 -25 -13 -11 -21 -23 -18
-26 7 -7 48 36 48 50 0 12 61 76 73 76 4 0 5 -5 1 -11 -3 -6 5 -3 20 6 14 10
26 21 26 26 0 5 8 17 18 27 9 10 30 36 45 59 26 37 301 306 472 461 39 35 60
58 47 52 -12 -6 -30 -9 -40 -6 -9 3 -45 6 -79 8 -35 1 -63 7 -63 13 0 5 -15
11 -32 12 -113 5 -126 8 -115 22 8 10 9 13 1 8 -24 -14 -125 -147 -184 -242
-35 -55 -108 -192 -164 -305 -64 -130 -102 -197 -104 -183 -2 11 4 38 13 59 9
22 35 90 56 153 47 133 85 212 175 358 111 179 169 249 373 453 251 250 404
373 681 546 195 122 564 313 805 417 44 19 150 65 235 102 145 63 476 194 493
195 4 0 7 -2 7 -5z m-2667 -149 c4 -6 6 -33 3 -61 -3 -27 -6 -217 -6 -421 l0
-371 -79 -7 -78 -7 -7 -61 c-3 -34 -7 -169 -8 -302 l-2 -241 -6 235 -5 235
-90 0 c-70 0 -91 -3 -97 -15 -4 -8 -7 220 -7 507 l-1 522 83 3 c129 5 291 -4
300 -16z m218 -141 c9 -180 10 -505 2 -656 -6 -122 -7 -126 -27 -121 -12 3
-27 9 -33 15 -7 5 -14 6 -15 1 -2 -5 -5 194 -8 441 -3 248 -4 453 -3 456 1 3
19 3 40 0 l38 -6 6 -130z m-727 43 c13 -188 0 -918 -17 -935 -4 -4 -13 -1 -19
5 -7 7 -19 12 -28 12 -23 0 -30 142 -30 627 l0 383 44 0 43 0 7 -92z m-216
-373 c2 -236 0 -455 -4 -485 l-6 -55 -19 24 c-10 13 -16 27 -13 32 3 5 1 8 -5
7 -5 -2 -39 22 -75 52 l-66 55 3 385 2 385 70 16 c123 30 110 78 113 -416z
m1168 414 l81 -21 7 -121 c6 -125 6 -464 -1 -412 -7 56 -11 60 -36 34 -34 -36
-80 -69 -94 -69 -16 0 -33 -31 -35 -67 -1 -15 -5 22 -8 82 -10 152 -12 595 -2
595 4 0 43 -9 88 -21z m494 -188 c85 -43 210 -116 210 -123 0 -14 -25 -7 -130
36 -234 97 -276 114 -301 120 -24 5 -26 3 -21 -19 2 -14 8 -25 13 -25 5 0 9
-5 9 -11 0 -5 -4 -7 -10 -4 -5 3 -10 -4 -10 -17 0 -13 -2 -111 -5 -218 -9
-308 -25 -256 -25 82 l0 296 113 -47 c61 -27 132 -58 157 -70z m-1978 92 c6
-25 2 -562 -4 -568 -3 -3 -63 38 -134 91 -233 173 -259 192 -290 207 -17 9
-36 22 -43 31 -28 33 121 129 336 216 110 44 129 48 135 23z m-1017 -703 c-3
-5 -11 -10 -16 -10 -6 0 -7 5 -4 10 3 6 11 10 16 10 6 0 7 -4 4 -10z m3743
-14 c-7 -8 -15 -12 -17 -11 -5 6 10 25 20 25 5 0 4 -6 -3 -14z m-3662 -32 c17
-14 17 -15 1 -10 -10 3 -28 6 -38 6 -11 0 -17 5 -14 10 9 15 28 12 51 -6z
m-256 -70 c0 -4 -25 -39 -55 -79 -110 -146 -251 -438 -296 -612 -36 -140 -38
-290 -4 -277 8 3 28 2 43 -4 32 -11 43 -7 60 23 8 15 11 -8 11 -99 2 -354 129
-660 366 -885 77 -73 264 -201 340 -234 280 -118 500 -131 824 -47 69 18 90
20 126 11 31 -8 57 -7 98 1 99 21 85 -7 -41 -79 -77 -43 -251 -106 -355 -127
-157 -33 -372 -14 -587 51 -197 59 -424 196 -556 336 -242 256 -356 561 -380
1019 -4 73 -11 125 -16 122 -12 -7 -1 77 23 181 52 233 209 543 332 658 48 44
67 56 67 41z m4267 -179 c107 -165 195 -365 229 -523 13 -63 15 -85 6 -94 -9
-9 -12 -6 -13 13 0 21 -1 22 -8 5 -5 -13 -13 15 -25 85 -21 126 -86 276 -196
449 -65 101 -100 167 -100 187 0 17 66 -58 107 -122z m-4047 -127 c-168 -187
-236 -314 -269 -502 -11 -60 -14 -214 -4 -186 10 27 34 39 67 33 43 -8 56 -21
57 -57 1 -17 7 20 15 83 19 168 66 304 138 400 37 49 32 35 -18 -60 -63 -119
-86 -208 -93 -361 -13 -280 66 -498 241 -673 129 -129 270 -210 418 -241 105
-23 310 -14 398 15 147 50 334 170 414 266 21 25 40 44 43 41 3 -2 -4 -24 -15
-48 -22 -49 -98 -129 -191 -199 -53 -41 -60 -49 -40 -49 29 0 72 -27 64 -41
-10 -15 39 -10 61 6 10 8 25 15 32 15 8 0 28 10 45 21 18 12 3 -6 -33 -40
-159 -150 -355 -221 -608 -221 -183 0 -295 28 -467 115 -121 61 -188 110 -278
201 -154 156 -265 388 -289 609 -14 124 1 331 32 460 33 134 135 321 224 409
47 47 138 117 145 111 2 -2 -38 -51 -89 -107z m3758 -74 c94 -127 162 -279
194 -434 28 -137 21 -398 -14 -515 -36 -117 -85 -228 -132 -298 -57 -87 -194
-227 -279 -285 -212 -144 -357 -193 -582 -194 -186 -1 -298 27 -475 120 -109
57 -170 104 -170 132 0 9 -6 22 -12 30 -12 12 4 4 90 -48 35 -20 74 -19 93 4
6 8 20 14 30 14 33 0 21 17 -45 64 -82 58 -175 160 -215 235 -40 76 -40 100 0
35 46 -72 163 -182 253 -239 123 -76 246 -116 383 -122 339 -17 645 166 794
472 69 141 93 265 86 440 -9 223 -72 388 -205 536 -75 83 -48 74 32 -11 50
-54 78 -96 117 -176 59 -122 83 -221 94 -394 6 -87 10 -107 16 -81 8 37 23 51
57 51 13 0 22 6 22 15 0 19 28 8 33 -13 13 -49 5 190 -9 256 -28 138 -125 322
-242 461 l-37 44 40 -20 c24 -13 58 -45 83 -79z m-3688 -84 c-12 -16 -24 -30
-26 -30 -3 0 4 14 16 30 12 17 24 30 26 30 3 0 -4 -13 -16 -30z m5460 -230
c-14 -151 -49 -284 -131 -503 -72 -190 -75 -196 -187 -395 -142 -251 -276
-406 -798 -927 -546 -545 -642 -670 -727 -945 -59 -192 -164 -538 -201 -665
-19 -66 -49 -154 -66 -195 -17 -41 -47 -115 -67 -165 -45 -112 -223 -465 -283
-563 -159 -259 -300 -454 -407 -565 -36 -37 -64 -69 -62 -72 19 -18 449 325
514 411 16 22 58 70 93 108 112 122 281 384 394 611 116 231 205 458 324 830
104 322 57 256 496 700 455 460 626 636 632 650 3 6 5 1 5 -9 1 -19 2 -19 14
-2 7 10 21 17 30 15 13 -3 4 -18 -39 -67 -31 -34 -61 -59 -66 -56 -6 4 -8 2
-5 -4 12 -19 -66 -102 -493 -527 -301 -300 -428 -431 -440 -460 -9 -22 -47
-134 -84 -250 -181 -565 -334 -913 -521 -1180 -140 -201 -178 -251 -271 -355
-147 -166 -270 -270 -459 -391 -110 -70 -292 -169 -311 -169 -4 0 38 46 92
103 226 233 458 608 591 957 140 369 186 547 238 928 65 472 77 537 132 707
29 89 84 205 140 292 98 155 199 267 550 608 808 786 940 934 1171 1311 101
165 132 226 174 344 32 92 33 94 36 55 2 -22 -1 -96 -8 -165z m-7393 50 c62
-146 167 -317 329 -535 140 -189 225 -289 417 -490 137 -144 662 -652 761
-737 76 -64 279 -294 348 -393 174 -248 253 -500 299 -945 38 -371 93 -640
188 -908 72 -203 84 -231 173 -396 144 -266 332 -531 516 -729 30 -32 52 -60
50 -62 -5 -6 -114 49 -137 68 -9 8 -56 38 -106 66 -221 129 -409 282 -560 456
-182 210 -330 439 -466 720 -114 237 -180 408 -274 710 -25 83 -62 196 -81
252 l-36 102 -321 312 c-177 171 -347 337 -377 368 -229 239 -354 379 -411
461 -82 119 -89 131 -56 101 31 -28 41 -24 32 11 -6 25 -51 58 -79 58 -9 0
-16 7 -16 15 0 8 6 14 13 12 7 -1 11 7 9 23 -2 18 8 9 40 -37 119 -169 477
-550 1001 -1063 110 -107 205 -206 211 -220 7 -14 32 -88 55 -165 56 -189 174
-548 218 -659 39 -100 161 -353 248 -516 83 -154 198 -302 391 -503 188 -196
300 -295 414 -364 41 -25 90 -59 109 -76 18 -18 1 9 -37 58 -363 463 -459 603
-585 859 -162 330 -291 672 -391 1041 -19 72 -55 190 -81 263 -112 326 -139
362 -831 1062 -464 470 -543 561 -671 775 -87 145 -114 202 -193 407 -113 292
-171 528 -169 678 l0 45 14 -30 c8 -16 26 -59 42 -95z m4966 49 c126 -64 232
-212 257 -360 24 -141 -13 -298 -92 -393 -49 -59 -60 -68 -141 -118 -36 -23
-53 -38 -42 -38 19 0 19 0 0 -14 -28 -19 -148 -44 -171 -35 -17 6 -16 7 6 11
14 3 -13 6 -60 7 -89 1 -164 16 -155 31 3 4 -16 20 -42 36 -67 38 -101 68
-152 133 -56 73 -74 109 -100 205 l-22 79 23 16 c13 8 51 41 85 73 34 32 66
58 70 58 5 0 9 -37 9 -83 2 -103 31 -183 87 -245 75 -81 173 -113 264 -86 88
26 183 89 183 122 0 12 5 22 10 22 6 0 10 6 10 14 0 8 9 17 20 21 24 8 34 54
28 138 -8 122 -80 218 -219 287 l-82 42 44 28 c24 16 58 40 74 54 17 14 34 25
38 26 4 0 36 -14 70 -31z m-2442 -5 c13 -14 38 -34 56 -45 18 -12 33 -25 33
-29 0 -5 -28 -22 -62 -39 -134 -63 -209 -173 -216 -312 -4 -67 0 -85 23 -137
27 -61 64 -102 100 -113 11 -3 19 -11 18 -17 -6 -28 163 -51 223 -29 152 55
232 164 249 341 l7 69 23 -30 c18 -22 112 -101 143 -119 6 -4 -31 -121 -58
-179 -50 -112 -176 -226 -291 -266 -49 -17 -87 -22 -159 -22 -78 0 -87 -2 -51
-8 61 -12 63 -19 4 -19 -33 0 -70 9 -107 26 -52 24 -88 51 -49 37 10 -3 -9 12
-42 34 -121 80 -197 199 -225 352 -32 180 85 403 260 496 78 42 90 42 121 9z
m3593 -474 l1 -195 -38 -139 c-55 -203 -73 -250 -134 -359 -140 -250 -335
-424 -603 -539 -221 -95 -314 -118 -490 -118 -220 0 -386 41 -591 146 -97 50
-129 78 -111 96 8 8 23 6 59 -9 90 -38 177 -50 211 -29 7 4 69 -5 138 -19 113
-24 140 -27 277 -23 132 4 165 9 252 35 195 59 277 98 400 191 217 164 354
357 438 617 41 127 48 162 57 277 7 103 9 109 36 131 73 56 77 64 72 157 l-5
85 15 -55 c11 -39 15 -110 16 -250z m-3454 230 c10 0 32 -14 49 -31 70 -69 21
-189 -76 -189 -75 0 -130 110 -92 181 12 23 67 51 87 44 8 -3 22 -5 32 -5z
m2131 -5 c33 -17 49 -49 49 -96 0 -64 -43 -108 -107 -109 -115 0 -149 145 -46
199 46 25 65 26 104 6z m-3554 -707 c-3 -8 -6 -5 -6 6 -1 11 2 17 5 13 3 -3 4
-12 1 -19z m2489 -7 c45 -27 91 -88 184 -241 45 -74 100 -154 122 -177 l41
-42 -23 -38 c-97 -161 -245 -446 -297 -573 -20 -47 -44 -103 -56 -125 l-20
-40 -34 75 c-19 41 -48 109 -65 150 -34 88 -114 240 -194 372 -31 51 -67 111
-80 133 l-23 40 54 71 c29 39 72 102 95 140 92 152 203 274 249 274 9 0 30 -9
47 -19z m-2436 -117 c6 -19 10 -40 7 -47 -3 -10 -35 74 -54 143 -8 27 36 -60
47 -96z m129 -264 l23 -35 -26 30 c-14 17 -26 34 -26 39 0 11 0 11 29 -34z
m4493 -47 c-110 -144 -292 -295 -474 -392 -83 -45 -286 -112 -398 -132 -105
-19 -325 -17 -433 4 -126 25 -259 71 -357 124 -86 46 -154 92 -147 99 2 2 84
-28 181 -67 98 -39 220 -80 270 -90 138 -29 357 -36 486 -15 199 33 389 111
545 223 93 66 151 101 140 82 -32 -52 159 140 205 206 18 26 34 44 37 41 3 -2
-22 -40 -55 -83z m-4362 -93 c19 -17 43 -30 55 -30 11 0 36 -16 55 -36 43 -45
115 -94 239 -163 110 -62 186 -92 302 -120 273 -66 532 -51 834 49 66 21 121
37 123 35 9 -8 -96 -66 -170 -95 -139 -54 -230 -72 -394 -77 -167 -6 -271 7
-444 53 -198 54 -545 265 -630 384 -27 38 -15 38 30 0z m5524 -539 c-10 -33
-21 -61 -25 -61 -5 0 -5 -7 -2 -17 4 -10 2 -14 -4 -10 -6 4 -14 0 -17 -9 -3
-8 -2 -12 4 -9 15 9 12 -11 -17 -107 -29 -97 -40 -110 -23 -27 18 90 22 126
10 109 -13 -20 -13 1 0 36 18 46 5 36 -43 -34 -26 -37 -59 -80 -75 -97 -40
-43 -115 -128 -202 -229 -79 -93 -423 -420 -493 -470 -76 -53 -109 -90 -138
-151 -31 -65 -31 -63 -8 65 16 84 18 88 59 117 21 16 85 70 142 122 116 106
750 733 805 798 20 24 38 41 40 39 2 -2 -4 -31 -13 -65z m-6156 -603 c122
-116 258 -239 301 -274 85 -69 86 -70 95 -184 l6 -65 -15 50 c-8 28 -14 53
-15 56 0 3 -32 29 -71 58 -236 177 -765 706 -863 863 -26 43 -55 83 -65 90
-10 7 -21 23 -25 35 -4 12 91 -78 211 -199 120 -121 318 -315 441 -430z m-580
494 c6 -15 17 -47 25 -72 81 -246 201 -458 392 -695 71 -89 287 -320 451 -483
46 -46 86 -91 89 -100 2 -10 38 -38 79 -64 67 -43 132 -108 108 -108 -6 0 -37
20 -69 45 -32 25 -98 76 -148 114 -106 80 -473 442 -564 555 -139 175 -241
348 -321 547 -41 100 -100 299 -100 335 0 15 47 -45 58 -74z m4753 -22 c46 24
27 8 -212 -174 -121 -92 -180 -144 -171 -148 9 -4 46 -81 44 -90 -1 -5 2 -8 7
-8 11 0 30 -56 28 -82 0 -10 -4 -18 -8 -18 -4 0 -10 -7 -13 -16 -3 -9 27 15
67 52 77 72 198 149 158 101 -6 -8 -9 -16 -6 -19 3 -3 -133 -144 -303 -314
-298 -299 -464 -482 -574 -632 -172 -233 -241 -336 -360 -536 -35 -61 -69
-111 -74 -112 -5 -2 -43 54 -84 124 -273 463 -526 774 -1048 1286 -73 71 -130
132 -127 134 2 3 12 -1 22 -9 9 -8 14 -9 10 -2 -17 28 18 22 51 -9 21 -18 49
-44 64 -57 26 -23 27 -23 21 -2 -3 11 2 32 11 46 9 14 15 29 12 34 -3 5 3 16
14 26 11 10 20 31 20 47 0 33 23 47 45 28 8 -7 15 -10 15 -6 0 10 -255 210
-352 277 -49 33 -88 61 -88 62 0 1 18 1 40 1 97 -4 451 -276 778 -598 200
-197 294 -305 447 -515 124 -171 155 -207 163 -195 168 245 228 323 398 514
247 279 624 609 854 749 116 71 114 70 121 59 4 -6 15 -6 30 2z m-1968 -208
c32 -30 56 -56 53 -59 -8 -8 -104 79 -167 152 l-34 40 45 -39 c25 -22 71 -64
103 -94z m-153 33 c19 -19 31 -35 28 -35 -4 0 -23 16 -44 35 -20 19 -33 35
-27 35 5 0 24 -16 43 -35z m1390 10 c13 -14 21 -25 18 -25 -2 0 -15 11 -28 25
-13 14 -21 25 -18 25 2 0 15 -11 28 -25z m-42 -188 c11 -16 11 -17 -5 -8 -24
13 -189 171 -179 171 5 0 2 8 -5 18 -7 9 30 -23 82 -73 52 -49 100 -98 107
-108z m-708 58 c13 -14 21 -25 18 -25 -2 0 -15 11 -28 25 -13 14 -21 25 -18
25 2 0 15 -11 28 -25z m-239 -12 c13 -16 12 -17 -3 -4 -17 13 -22 21 -14 21 2
0 10 -8 17 -17z m3498 -39 c-6 -16 -13 -24 -16 -17 -5 13 16 58 23 50 3 -2 -1
-17 -7 -33z m-3208 9 c13 -16 12 -17 -3 -4 -10 7 -18 15 -18 17 0 8 8 3 21
-13z m509 -118 c0 -10 -11 0 -92 80 -70 70 -58 66 22 -7 38 -35 70 -67 70 -73z
m50 80 c62 -63 54 -75 -10 -15 -23 22 -46 40 -51 40 -11 0 -12 14 -2 23 3 4 7
7 8 7 0 0 25 -25 55 -55z m-931 31 c9 -11 9 -16 -1 -22 -7 -4 -10 -4 -6 1 4 4
3 14 -3 22 -6 7 -9 13 -6 13 2 0 10 -6 16 -14z m3548 -68 c-3 -8 -6 -5 -6 6
-1 11 2 17 5 13 3 -3 4 -12 1 -19z m-33 -64 c-5 -26 -3 -35 4 -30 19 11 -65
-115 -146 -221 -51 -67 -273 -312 -344 -379 -60 -58 -201 -174 -210 -174 -27
0 30 69 180 218 73 73 161 167 194 210 33 42 72 88 87 102 30 28 166 207 206
269 14 23 28 41 31 41 3 0 2 -16 -2 -36z m36 6 c-6 -11 -13 -20 -16 -20 -2 0
0 9 6 20 6 11 13 20 16 20 2 0 0 -9 -6 -20z m-2762 -14 c20 -13 44 -31 51 -40
25 -30 -40 1 -73 35 -34 35 -28 37 22 5z m-868 -21 c13 -14 21 -25 18 -25 -2
0 -15 11 -28 25 -13 14 -21 25 -18 25 2 0 15 -11 28 -25z m438 -47 c39 -33 72
-61 72 -63 0 -2 -5 -7 -12 -11 -7 -4 -8 -3 -4 4 4 7 2 12 -4 12 -6 0 -30 18
-52 40 -23 22 -48 40 -55 40 -7 0 -12 4 -10 9 1 5 -7 17 -18 26 -11 9 -13 13
-5 9 8 -4 48 -34 88 -66z m-150 -105 c27 -24 38 -40 27 -36 -21 6 -54 35 -107
90 -17 18 -39 35 -49 38 -11 4 -19 13 -19 21 0 8 -3 14 -8 14 -4 0 -14 10 -21
22 -13 21 25 -12 177 -149z m512 121 c0 -8 -19 -13 -24 -6 -3 5 1 9 9 9 8 0
15 -2 15 -3z m78 -79 c-9 -9 -68 45 -68 63 0 12 11 6 37 -20 20 -21 34 -40 31
-43z m-145 -100 l32 -40 -35 27 c-46 35 -110 103 -110 117 0 6 -3 11 -8 11 -4
0 -13 10 -21 23 -17 28 100 -85 142 -138z m-323 -160 c44 -46 45 -47 10 -26
-32 19 -260 236 -260 247 0 8 200 -169 250 -221z m161 208 c13 -16 12 -17 -3
-4 -17 13 -22 21 -14 21 2 0 10 -8 17 -17z m230 0 c13 -16 12 -17 -3 -4 -10 7
-18 15 -18 17 0 8 8 3 21 -13z m-161 -206 c0 -17 -139 114 -160 151 -17 28 -1
16 69 -53 50 -49 91 -94 91 -98z m5 133 c27 -27 45 -50 40 -50 -6 0 -3 -5 5
-10 8 -5 10 -10 4 -10 -6 0 -19 9 -29 20 -10 11 -15 20 -11 20 4 0 -11 18 -34
40 -23 22 -38 40 -33 40 5 0 31 -22 58 -50z m-154 -97 c8 -9 14 -19 14 -22 0
-3 6 -6 14 -8 17 -2 80 -63 65 -63 -6 0 -21 10 -34 23 -14 12 -27 21 -31 20
-3 -1 -21 14 -39 32 -24 24 -29 35 -18 35 8 0 22 -7 29 -17z m-1007 -553 c94
-113 200 -241 236 -285 35 -44 112 -136 170 -205 59 -69 129 -152 156 -186
200 -248 400 -474 419 -474 12 0 126 128 231 260 32 41 110 133 172 204 62 71
130 150 150 175 20 25 100 120 177 211 77 91 174 206 215 255 112 136 278 320
374 415 66 65 86 80 86 64 0 -24 -42 -76 -550 -684 -76 -91 -186 -223 -246
-295 -59 -71 -130 -155 -158 -186 -71 -77 -137 -165 -140 -185 -4 -30 46 -64
94 -64 23 0 49 -4 59 -10 19 -9 65 -21 91 -22 8 0 21 -5 28 -11 10 -8 16 -7
22 2 6 10 9 10 15 1 4 -7 1 -16 -6 -21 -10 -6 -10 -9 -2 -9 7 0 33 26 57 58
83 106 166 217 208 279 28 39 45 57 50 50 6 -9 8 -9 8 -1 0 7 9 14 20 17 13 3
18 1 13 -6 -20 -34 -88 -136 -163 -241 -47 -65 -119 -167 -161 -226 -91 -128
-627 -800 -639 -800 -5 0 -85 96 -178 213 -94 116 -207 257 -252 312 -104 128
-240 306 -314 415 -33 47 -89 128 -126 180 -95 133 -187 278 -163 258 11 -10
25 -18 31 -18 6 0 22 -15 36 -32 52 -68 236 -318 329 -448 54 -74 117 -157
142 -185 37 -42 43 -46 39 -25 -2 14 -2 20 1 14 7 -13 94 4 117 24 8 6 37 16
64 21 27 5 50 14 52 20 2 6 12 11 22 11 10 0 21 7 24 16 3 8 10 13 15 10 5 -3
12 1 15 10 3 8 2 12 -3 9 -5 -3 -12 4 -16 15 -4 11 -11 18 -16 15 -5 -3 -6 0
-3 8 3 8 -22 43 -59 83 -34 38 -110 126 -168 195 -57 69 -144 175 -194 235
-49 59 -137 164 -194 233 -58 69 -170 207 -250 306 -79 99 -177 218 -216 265
-98 117 -121 150 -128 185 -6 25 13 9 114 -95 67 -69 198 -217 293 -330z
m1051 400 c10 -11 14 -20 9 -20 -5 0 -15 9 -22 20 -7 11 -11 20 -9 20 2 0 12
-9 22 -20z m-35 -65 c25 -30 3 -25 -26 6 -22 24 -24 29 -8 21 11 -6 27 -18 34
-27z m-2565 -405 c10 -11 16 -20 13 -20 -3 0 -13 9 -23 20 -10 11 -16 20 -13
20 3 0 13 -9 23 -20z"/>
<path d="M7580 8680 c-9 -6 -10 -10 -3 -10 6 0 15 5 18 10 8 12 4 12 -15 0z"/>
<path d="M7480 8640 c-8 -5 -10 -10 -5 -10 6 0 17 5 25 10 8 5 11 10 5 10 -5
0 -17 -5 -25 -10z"/>
<path d="M5680 8560 c8 -5 20 -10 25 -10 6 0 3 5 -5 10 -8 5 -19 10 -25 10 -5
0 -3 -5 5 -10z"/>
<path d="M8587 6817 c-42 -75 -49 -93 -28 -69 19 21 31 28 34 20 3 -8 9 -3 15
12 l11 25 2 -30 c1 -20 6 -6 15 40 23 112 13 112 -49 2z"/>
<path d="M8220 5301 c0 -7 -4 -10 -9 -7 -5 3 -11 -4 -14 -16 l-6 -21 21 21
c12 12 19 25 15 28 -4 4 -7 2 -7 -5z"/>
<path d="M1350 6871 c0 -6 4 -13 10 -16 6 -3 7 1 4 9 -7 18 -14 21 -14 7z"/>
<path d="M1670 5404 c0 -8 5 -12 10 -9 6 4 8 11 5 16 -9 14 -15 11 -15 -7z"/>
<path d="M3820 2296 c0 -2 7 -9 15 -16 9 -7 15 -8 15 -2 0 5 -7 12 -15 16 -8
3 -15 4 -15 2z"/>
<path d="M5240 5787 c12 -16 6 -25 -53 -84 -37 -36 -67 -62 -67 -57 0 4 -20
-15 -45 -42 l-45 -49 0 -120 c0 -73 4 -115 9 -106 6 10 22 12 53 9 l44 -5 61
126 c34 69 79 149 101 176 l39 51 -55 59 c-31 33 -49 52 -42 42z"/>
<path d="M4696 5734 l-37 -44 44 -73 c24 -39 63 -102 85 -138 22 -37 64 -112
92 -167 49 -97 80 -140 68 -94 -4 13 2 28 13 41 17 18 19 37 19 188 0 98 -4
162 -9 154 -5 -7 -10 -9 -12 -5 -11 25 -170 166 -196 173 -28 8 -33 5 -67 -35z"/>
<path d="M5048 3606 c-23 -28 -44 -53 -46 -56 -2 -3 -8 3 -13 13 -6 9 -15 17
-20 17 -6 0 -8 -3 -6 -7 3 -5 -36 -9 -87 -10 -100 -2 -111 -3 -143 -21 -22
-12 -21 -15 76 -160 55 -81 118 -182 141 -224 23 -43 45 -78 49 -78 4 0 21 30
39 66 31 63 247 407 281 448 16 19 15 19 -8 4 -22 -16 -27 -15 -80 12 -31 16
-75 34 -98 39 l-43 9 -42 -52z"/>
<path d="M8043 4365 c0 -8 4 -12 9 -9 5 3 6 10 3 15 -9 13 -12 11 -12 -6z"/>
<path d="M8012 4338 c-14 -14 -16 -38 -3 -38 10 0 26 39 19 46 -2 2 -10 -2
-16 -8z"/>
<path d="M5215 4290 c10 -11 20 -20 23 -20 3 0 -3 9 -13 20 -10 11 -20 20 -23
20 -3 0 3 -9 13 -20z"/>
<path d="M4880 2424 c0 -8 5 -12 10 -9 6 4 8 11 5 16 -9 14 -15 11 -15 -7z"/>
<path d="M4930 2388 c0 -3 14 -21 32 -39 17 -19 26 -25 20 -14 -10 21 -52 62
-52 53z"/>
<path d="M4815 733 c-11 -2 -27 -7 -35 -10 -23 -9 -28 -10 -60 -12 -21 -1 -30
-6 -30 -18 0 -15 -3 -14 -15 4 l-15 22 -36 -21 c-47 -28 -31 -44 42 -41 31 1
66 -4 81 -13 16 -7 33 -14 39 -14 5 0 20 -9 32 -20 l22 -21 0 31 c0 36 -10 35
173 15 134 -14 167 -13 167 6 0 5 41 9 90 9 l90 0 0 28 c0 28 -1 29 -82 39
-62 9 -85 8 -90 0 -9 -14 -161 -14 -165 -1 -2 5 -38 8 -80 7 -42 -1 -84 2 -92
6 -9 4 -25 6 -36 4z"/>
<path d="M5530 680 c0 -11 5 -20 10 -20 6 0 10 9 10 20 0 11 -4 20 -10 20 -5
0 -10 -9 -10 -20z"/>
</g>
</svg>
